<svg width="2957" height="731" viewBox="0 0 2957 731" fill="none" xmlns="http://www.w3.org/2000/svg">
<path d="M2839.71 246.153H2797.26C2791.13 246.153 2783.23 244.983 2777.51 247.653C2767.64 252.26 2767.28 284.339 2775.89 290.266C2781.08 293.844 2789.29 292.648 2795.23 292.65H2839.71V335.103C2839.71 341 2838.34 349.493 2841.79 354.676C2847.74 363.581 2878.83 361.958 2884.12 352.998C2887.44 347.422 2886.21 339.275 2886.21 333.081V292.65H2928.66C2934.85 292.65 2942.99 293.873 2948.57 290.571C2958.56 284.656 2958.56 254.146 2948.57 248.231C2942.99 244.93 2934.85 246.153 2928.66 246.153H2886.21V203.7C2886.21 197.781 2887.54 189.698 2884.99 184.179C2880.44 174.387 2847.57 173.422 2841.79 182.105C2838.34 187.289 2839.71 195.781 2839.71 201.678V246.153Z" fill="#20CFB9"/>
<path d="M1072.84 129.789C1043.09 134.424 1015.28 142.444 989.958 159.233C902.907 216.937 889.106 354.995 957.965 432.139C1012.95 493.739 1110.54 507.775 1184.03 472.047C1202.92 462.863 1220.27 450.159 1233.96 434.161C1238.55 428.799 1247.24 419.953 1245.21 412.111C1242.59 402.011 1224.52 394.639 1216.38 389.587C1211.66 386.659 1206.12 382.214 1200.21 382.695C1192.86 383.297 1188.22 390.834 1183.69 395.744C1175.51 404.617 1165.95 412.17 1155.73 418.574C1132.04 433.421 1100.01 437.636 1072.84 432.131C1059.16 429.359 1046.33 424.429 1034.43 417.042C950.752 365.075 967.299 227.441 1056.67 192.508C1090.94 179.113 1134.33 186.088 1163.81 207.595C1174.74 215.564 1184.2 232.667 1196.34 237.792C1207.25 242.395 1228.19 223.216 1236.55 217.147C1239.92 214.705 1244.11 211.94 1245.02 207.555C1246.09 202.392 1242.13 197.425 1239.25 193.592C1232.09 184.046 1223.55 175.406 1214.35 167.839C1177.01 137.157 1120.79 122.319 1072.84 129.789Z" fill="#025659"/>
<path d="M1626.76 265.77C1626.76 258.998 1629.5 244.283 1623.52 239.546C1620.13 236.859 1614.61 237.496 1610.59 237.47C1600.52 237.399 1590.33 237.064 1580.27 237.506C1576.08 237.692 1571.45 237.892 1569.35 242.154C1566.94 247.06 1568.13 254.409 1568.13 259.705V300.137V423.454C1568.13 438.054 1563.47 462.254 1569.35 475.716C1574.1 486.598 1598.91 482.145 1608.56 482.078C1612.91 482.048 1618.27 482.543 1622.07 480.002C1626.76 476.872 1626.65 470.929 1626.75 465.907C1626.96 454.461 1626.76 442.991 1626.76 431.54V360.785C1626.76 349.429 1624.56 335.363 1627.8 324.396C1635.15 299.494 1670.19 277.9 1695.49 284.053C1714.43 288.663 1726.52 303.74 1730.24 322.375C1733.01 336.222 1731.88 350.772 1731.88 364.828V435.583C1731.88 446.991 1728 467.043 1733.09 477.394C1735.2 481.655 1739.83 481.855 1744.01 482.041C1755.09 482.529 1773.89 485.339 1784.14 480.861C1790.26 478.182 1790.39 471.713 1790.51 465.907C1790.73 453.113 1790.51 440.294 1790.51 427.497V356.742C1790.51 346.011 1788.44 332.733 1791.54 322.375C1797.66 301.993 1826.31 283.186 1847.11 282.477C1870.18 281.69 1890.41 299.787 1893.22 322.375C1897.81 358.977 1893.61 398.683 1893.61 435.583C1893.61 447.319 1892.03 460.34 1893.91 471.934C1896.42 487.423 1922.58 482.104 1934.04 482.08C1938.57 482.07 1945.18 483.026 1949 480.002C1954.09 475.965 1952.23 465.509 1952.23 459.842V403.238V334.504C1952.23 309.406 1952.4 285.574 1937.88 263.749C1904.71 213.908 1806.38 218.134 1780.4 273.857H1776.36C1762.99 228.834 1700.02 221.127 1663.15 238.457C1648.86 245.174 1639.38 256.875 1626.76 265.77Z" fill="#025659"/>
<path d="M1709.64 229.98C1712.17 231.365 1712.78 231.495 1715.71 232.002C1713.18 230.617 1712.57 230.488 1709.64 229.98Z" fill="#578688"/>
<path d="M2338.36 272.434C2338.36 264.41 2341.49 247.894 2336.27 241.307C2333.48 237.792 2328.21 238.152 2324.21 238.077C2313.49 237.873 2302.57 237.634 2291.86 238.105C2287.68 238.291 2283.05 238.491 2280.94 242.753C2278.54 247.659 2279.73 255.007 2279.73 260.304V300.736V424.053C2279.73 438.652 2275.08 462.853 2280.94 476.315C2285.8 487.417 2312.28 482.745 2322.18 482.677C2326.15 482.65 2331.52 483.281 2334.84 480.6C2342.46 474.43 2338.36 451.095 2338.36 442.247V381.599C2338.36 367.28 2337.37 352.949 2341.89 339.146C2350.2 313.807 2371.37 297.41 2396.98 291.98C2405.35 290.205 2425.67 294.489 2431.29 287.387C2437.33 279.756 2433.53 257.549 2433.37 248.177C2433.29 244.17 2433.65 238.885 2430.14 236.102C2424.98 232.02 2413.22 233.785 2407.09 234.203C2388.82 235.457 2370.74 240.687 2356.63 252.883C2349.82 258.764 2345.07 266.48 2338.36 272.434Z" fill="#025659"/>
<path d="M1390.23 230.837C1440.82 224.116 1496.28 246 1522.74 290.628C1567.7 366.44 1524.67 473.355 1434.71 486.146C1391.92 492.227 1346.68 486.051 1313.42 456.046C1257.86 405.925 1259.94 309.675 1315.44 260.676C1336.52 242.062 1363.03 234.454 1390.23 230.837ZM1422.58 284.733C1413.74 283.166 1405.24 282.036 1396.3 283.429C1374.96 286.753 1356.1 296.418 1343.95 314.887C1318.21 354.047 1333.63 417.247 1380.12 432.645C1392.81 436.846 1407.39 437.409 1420.56 435.292C1499.07 422.678 1501.4 298.702 1422.58 284.733Z" fill="#025659"/>
<path d="M2107.9 233.627C2125.44 229.93 2140.75 229.887 2158.44 232.881C2171.33 235.067 2183.46 239.407 2194.82 245.896C2287.05 298.54 2270.86 456.995 2166.52 484.385C2150.01 488.721 2132.82 489.698 2115.98 487.27C2088.95 483.376 2072.82 469.482 2051.29 454.376V535.24C2051.29 544.646 2054.3 560.381 2050.08 568.964C2047.98 573.226 2043.35 573.426 2039.16 573.612C2028.45 574.083 2017.53 573.844 2006.82 573.64C2002.15 573.553 1996.28 573.846 1993.88 568.964C1990.54 562.18 1992.67 550.709 1992.67 543.327V322.973C1992.67 298.451 1988.84 270.428 1992.97 246.272C1995.25 232.821 2022.97 238.047 2033.1 238.067C2037.63 238.077 2044.24 237.121 2048.06 240.145C2054.02 244.881 2051.29 259.596 2051.29 266.369C2069.16 251.359 2084.41 238.574 2107.9 233.627ZM2186.92 320.952C2171.11 292.273 2139.49 279.802 2107.9 285.503C2051.17 295.733 2033.14 370.495 2068.41 411.842C2085.94 432.386 2114.71 438.905 2140.24 433.966C2189.57 424.428 2209.84 362.515 2186.92 320.952Z" fill="#025659"/>
<path d="M2532.43 234.501C2549.53 230.45 2565.54 229.161 2582.97 231.432C2612.65 235.299 2630.07 249.772 2653.73 266.369V238.067H2692.14C2697.51 238.077 2704.93 237.123 2709.12 241.307C2712.9 245.09 2712.31 251.373 2712.35 256.261C2712.43 269.063 2712.35 281.868 2712.35 294.671V462.463C2712.33 467.345 2713.14 473.703 2710.27 477.993C2704.12 487.203 2677.64 482.855 2667.88 482.669C2663.87 482.594 2658.6 482.954 2655.81 479.438C2651.34 473.806 2653.73 461.163 2653.73 454.377C2642.51 459.352 2634.12 469.467 2623.4 475.674C2606.78 485.3 2585.78 488.68 2566.8 488.741C2529.15 488.862 2492.1 472.918 2469.28 442.247C2418.8 374.372 2443.5 255.584 2532.43 234.501ZM2635.11 308.852C2616.18 287.319 2584.41 279.271 2556.69 285.633C2506.78 297.087 2488.2 360.407 2513.18 401.815C2523.9 419.561 2540.94 429.919 2560.73 434.668C2570.4 436.987 2581.35 436.888 2591.06 434.83C2602.56 432.392 2614.02 428.183 2623.4 420.962C2657.18 394.938 2663.55 341.216 2635.11 308.852Z" fill="#025659"/>
<path d="M2650.35 380.926C2650.25 381.037 2650.13 383.172 2651.04 382.273C2651.14 382.161 2651.26 380.027 2650.35 380.926Z" fill="#578688"/>
<path d="M2648.33 384.969C2648.23 385.08 2648.1 387.215 2649.01 386.316C2649.11 386.202 2649.24 384.07 2648.33 384.969Z" fill="#929A9B"/>
<path d="M2646.3 391.034C2646.2 391.145 2646.08 393.28 2646.99 392.38C2647.09 392.267 2647.21 390.134 2646.3 391.034Z" fill="#929A9B"/>
<path d="M2103.19 432.812C2102.28 433.712 2104.42 433.599 2104.52 433.487C2105.43 432.588 2103.29 432.701 2103.19 432.812Z" fill="#929A9B"/>
<path d="M464.346 114.75H391.569C382.13 114.75 367.882 112.15 359.343 116.828C354.652 119.396 352.243 123.758 351.436 128.903C349.206 143.145 349.206 163.175 351.436 177.417C352.243 182.562 354.652 186.925 359.343 189.492C367.882 194.17 382.13 191.57 391.569 191.57H464.346V264.347C464.346 273.293 461.985 286.447 466.424 294.552C468.991 299.242 473.354 301.652 478.499 302.458C491.987 304.571 511.558 304.777 524.985 302.296C529.967 301.375 534.22 298.967 536.761 294.451C541.621 285.819 539.145 271.886 539.145 262.326V191.57H611.922C621.482 191.57 635.414 194.047 644.047 189.187C657.992 181.337 653.682 144.71 652.133 130.925C651.488 125.179 649.291 120.085 644.047 117.133C635.414 112.273 621.482 114.75 611.922 114.75H539.145V41.9728C539.145 32.538 541.676 18.4779 536.761 10.0094C528.723 -3.84247 494.257 0.222972 480.518 1.7614C474.787 2.40224 469.386 4.58353 466.424 9.84775C461.696 18.2454 464.346 32.6411 464.346 41.9728V114.75ZM312.727 504.916C320.66 479.858 343.655 453.141 369.331 445.548C387.887 440.062 408.863 442.247 427.957 442.247H565.425C588.453 442.247 613.412 444.944 636.181 441.359C703.522 430.76 727.639 365.827 751.411 310.844C758.743 293.885 766.672 277.15 774.267 260.304C778.589 250.714 784.114 240.836 783.615 229.982C782.432 204.292 739.086 206.425 721.087 210.561C715.88 211.758 711.143 214.481 707.391 218.283C699.246 226.533 695.953 239.842 691.23 250.196C676.863 281.69 665.682 322.189 639.878 346.345C612.827 371.671 581.644 369.47 547.231 369.47H405.72H353.159C345.741 369.47 335.706 371.121 329.455 366.229C322.958 361.143 319.932 350.513 316.77 343.189C310.291 328.181 302.991 313.573 296.194 298.714C273.569 249.26 249.124 200.578 226.423 151.138C216.665 129.887 208.324 100.32 189.38 85.5016C175.061 74.3 157.987 76.3397 140.892 76.3397H43.8558C28.2674 76.3397 5.67615 72.7595 0.569621 92.5145C-1.68647 101.244 3.23812 109.241 6.96592 116.771C15.3899 133.785 20.7248 146.956 41.8342 147.093C63.3965 147.233 84.9628 147.095 106.525 147.095C115.226 147.095 126.927 145.169 134.397 150.617C141.537 155.826 144.064 165.716 147.581 173.376C154.107 187.59 160.938 201.684 167.615 215.829C190.789 264.921 213.877 314.07 236.531 363.405C242.42 376.234 248.446 389.128 254.624 401.815C257.645 408.017 262.935 414.935 263.222 422.031C263.637 432.246 254.153 443.771 249.439 452.355C232.373 483.429 198.311 522.785 227.175 557.289C230.798 561.62 235.126 565.151 239.958 568.06C253.699 576.335 268.99 575.672 284.425 575.672H341.029H589.684H638.202C646.287 575.668 655.224 576.432 662.374 571.916C673.463 564.913 680.385 545.493 683.466 533.218C686.5 521.127 681.331 508.696 668.518 505.713C648.148 500.97 622.707 504.916 601.814 504.916H312.727Z" fill="#20CFB9"/>
<path d="M316.77 610.904C294.539 614.09 274.307 628.916 266.499 650.47C255.876 679.795 271.996 714.973 300.597 726.322C310.918 730.416 324.082 730.274 334.964 728.706C342.715 727.588 350.563 725.168 357.202 720.957C409.314 687.898 378.137 602.112 316.77 610.904ZM585.641 611.08C561 616.122 538.591 636.908 535.473 662.6C530.99 699.579 565.88 737.742 603.835 729.987C620.079 726.67 634.905 720.995 645.001 707.067C675.747 664.644 639.266 600.105 585.641 611.08Z" fill="#20CFB9"/>
</svg>
