<svg width="301" height="186" viewBox="0 0 301 186" fill="none" xmlns="http://www.w3.org/2000/svg">
<path d="M2 45.5993C3.2 47.9993 16.8 77.5993 32.4 111.333L61.9971 175.51H72.4971H82.9971L110.933 115.333C125.467 83.7327 139.2 54.266 141.333 49.5993L145.2 41.1993H132.497H119.997L96.8 92.666C76.6667 136.666 73.4971 146.51 70.6667 142.933C70.0975 142.213 60.5333 119.199 48 91.866L25.4971 41.1993H12.9971H0L2 45.5993Z" fill="black"/>
<path d="M182.6 33.5996C182.6 52.1223 182.6 67.3156 182.866 67.333C183.133 67.333 187.266 64.3993 192.066 60.666C203.533 51.9994 215.667 48.1328 231.4 48.1328C283.133 48.2664 315.533 99.3332 293.934 147.066C289.134 157.733 274.067 173.333 263.4 178.399C247.934 185.999 229.267 187.733 212.2 183.333C189.8 177.6 171.8 161.066 164.467 139.333C161.556 130.997 161.533 128.439 161.012 68.1953L161 66.7998V0H182.733L182.6 33.5996ZM230.397 66.5098C202.783 66.5098 180.398 88.8956 180.397 116.51C180.397 144.124 202.783 166.51 230.397 166.51C258.012 166.51 280.397 144.124 280.397 116.51C280.397 88.8957 258.012 66.5099 230.397 66.5098Z" fill="black"/>
</svg>
