<svg width="153" height="22" viewBox="0 0 153 22" fill="none" xmlns="http://www.w3.org/2000/svg">
<path d="M26.242 6.10364C25.2121 6.28968 23.9169 6.84781 23.1054 7.49897L22.4968 7.97958V7.18889V6.39821H21.2484H20V14.0725V22H21.2481H22.4968V17.2043C22.4968 13.871 22.5592 12.4602 22.7153 11.8865C23.3239 9.60747 25.3837 8.25865 27.943 8.44469C29.8 8.58423 31.22 9.54546 32.0003 11.1889C32.2677 11.7611 32.4092 12.3835 32.4153 13.0145L32.4528 16.8942L32.4837 22H33.7711H35L34.9496 16.4291L34.913 12.2783C34.9063 11.5199 34.7323 10.7722 34.4034 10.0881C33.8417 8.90981 32.7337 7.6385 31.7818 7.08037C30.2525 6.19666 28.0054 5.79356 26.242 6.10364Z" fill="black"/>
<path d="M44.9526 6.12561C41.7192 6.68243 39.5366 8.9561 39.1324 12.1733C39.0354 12.8848 38.9869 15.3131 39.0031 17.5713L39.031 22H40.4254H41.6986L41.7515 16.767C41.8 11.9258 41.8162 11.7402 42.1718 10.9978C42.6245 10.0697 43.3521 9.31184 44.2251 8.8633C44.7424 8.58489 45.1466 8.52302 46.3268 8.52302C47.6202 8.52302 47.8627 8.56942 48.5417 8.9561C49.4309 9.45105 49.9968 10.1161 50.401 11.0906C50.6273 11.6629 50.6758 12.529 50.7405 16.7516V22H52.0658H53.339L53.3919 16.7516C53.4566 11.1524 53.5374 10.7503 54.6368 9.69852C55.6068 8.77049 56.302 8.52302 57.8864 8.52302C59.5031 8.52302 60.263 8.83236 61.1845 9.8532C62.1707 10.9668 62.2354 11.3535 62.2839 16.798L62.3118 22H63.7063H65V16.8444C65 11.5546 64.9192 10.905 64.127 9.40465C63.6258 8.46115 62.1546 7.13097 61.0714 6.66696C58.4199 5.50692 55.0895 5.95547 53.0362 7.76513L52.0985 8.61582L51.3063 7.85793C50.3848 6.9763 49.4309 6.51229 47.9274 6.20294C46.7148 5.95547 46.0682 5.94 44.9526 6.12561Z" fill="black"/>
<path d="M0.23416 6.52416C0.374656 6.81006 1.96694 10.3362 3.79339 14.3548L7.25861 22H8.48795H9.71729L12.9881 14.8313C14.6896 11.0669 16.2975 7.55659 16.5473 7.00067L17 6H15.5127H14.0492L11.3333 12.1311C8.97612 17.3727 8.60503 18.5453 8.27365 18.1192C8.207 18.0335 7.08724 15.2919 5.61983 12.0358L2.98519 6H1.5217H0L0.23416 6.52416Z" fill="black"/>
<path d="M70.6281 3.98035C70.6281 6.17535 70.6281 7.97568 70.6605 7.9765C70.693 7.9765 71.196 7.62892 71.78 7.18666C73.1751 6.16003 74.6514 5.70206 76.5656 5.70205C82.8601 5.71785 86.8022 11.7672 84.1741 17.4218C83.5901 18.6854 81.757 20.5334 80.4592 21.1336C78.5773 22.0339 76.306 22.2393 74.2295 21.7181C71.5041 21.0389 69.314 19.0803 68.4218 16.5057C68.0676 15.5182 68.0649 15.2151 68.0015 8.07861L68 7.91331V0H70.6443L70.6281 3.98035ZM76.4436 7.87899C73.0837 7.87903 70.3601 10.5308 70.3601 13.8021C70.3601 17.0733 73.0838 19.7251 76.4436 19.7251C79.8034 19.7251 82.5271 17.0733 82.5271 13.8021C82.5271 10.5308 79.8034 7.87899 76.4436 7.87899Z" fill="black"/>
<path d="M153 11.9091H151.667V14.6667C151.667 14.8417 151.684 14.9865 151.717 15.101C151.751 15.2155 151.798 15.3064 151.859 15.3737C151.926 15.4343 152.003 15.4781 152.091 15.505C152.178 15.5252 152.273 15.5354 152.374 15.5354C152.468 15.5354 152.566 15.5219 152.667 15.4949C152.774 15.468 152.875 15.431 152.97 15.3838L153 15.9798C152.879 16.0269 152.751 16.0606 152.616 16.0808C152.488 16.1077 152.347 16.1212 152.192 16.1212C152.064 16.1212 151.929 16.1044 151.788 16.0707C151.646 16.037 151.515 15.9731 151.394 15.8788C151.273 15.7845 151.172 15.6566 151.091 15.4949C151.017 15.3333 150.98 15.1212 150.98 14.8586V11.9091H150V11.3333H150.98V10H151.667V11.3333H153V11.9091Z" fill="#037A72"/>
<path d="M147.103 12.4169C146.988 12.235 146.82 12.0869 146.598 11.9724C146.382 11.8512 146.147 11.7906 145.891 11.7906C145.615 11.7906 145.366 11.8411 145.143 11.9421C144.921 12.0364 144.729 12.1711 144.568 12.3462C144.413 12.5145 144.291 12.7165 144.204 12.9522C144.123 13.1812 144.083 13.4303 144.083 13.6997C144.083 13.9691 144.123 14.2182 144.204 14.4472C144.291 14.6761 144.413 14.8781 144.568 15.0532C144.722 15.2216 144.911 15.3563 145.133 15.4573C145.355 15.5515 145.605 15.5987 145.881 15.5987C146.184 15.5987 146.44 15.5414 146.648 15.427C146.857 15.3125 147.029 15.1643 147.164 14.9825L147.679 15.3664C147.477 15.6155 147.228 15.8142 146.931 15.9623C146.642 16.1105 146.291 16.1845 145.881 16.1845C145.497 16.1845 145.15 16.1239 144.84 16.0027C144.531 15.8748 144.265 15.6997 144.042 15.4775C143.827 15.2552 143.658 14.9926 143.537 14.6896C143.416 14.3866 143.355 14.0566 143.355 13.6997C143.355 13.3428 143.416 13.0128 143.537 12.7098C143.658 12.4068 143.827 12.1441 144.042 11.9219C144.265 11.6997 144.531 11.528 144.84 11.4068C145.15 11.2788 145.497 11.2148 145.881 11.2148C146.197 11.2148 146.517 11.2856 146.84 11.427C147.17 11.5616 147.436 11.7637 147.638 12.033L147.103 12.4169Z" fill="#037A72"/>
<path d="M139.399 13.3361C139.379 12.8916 139.234 12.5246 138.964 12.235C138.702 11.9387 138.325 11.7906 137.833 11.7906C137.604 11.7906 137.392 11.8344 137.197 11.9219C137.001 12.0027 136.83 12.1172 136.682 12.2653C136.533 12.4068 136.416 12.5717 136.328 12.7603C136.24 12.9421 136.19 13.134 136.176 13.3361H139.399ZM140.096 13.5583C140.096 13.6054 140.096 13.6559 140.096 13.7098C140.096 13.7637 140.092 13.8209 140.086 13.8815H136.166C136.173 14.1172 136.22 14.3394 136.308 14.5482C136.395 14.7569 136.517 14.9387 136.671 15.0936C136.826 15.2485 137.008 15.3731 137.217 15.4674C137.426 15.5549 137.651 15.5987 137.894 15.5987C138.251 15.5987 138.557 15.5179 138.813 15.3563C139.075 15.1879 139.274 14.996 139.409 14.7805L139.924 15.1845C139.641 15.5414 139.328 15.7973 138.985 15.9522C138.648 16.1071 138.284 16.1845 137.894 16.1845C137.543 16.1845 137.217 16.1239 136.914 16.0027C136.618 15.8748 136.362 15.6997 136.146 15.4775C135.931 15.2552 135.759 14.9926 135.631 14.6896C135.51 14.3866 135.449 14.0566 135.449 13.6997C135.449 13.3428 135.51 13.0128 135.631 12.7098C135.752 12.4068 135.921 12.1441 136.136 11.9219C136.352 11.6997 136.604 11.528 136.894 11.4068C137.183 11.2788 137.496 11.2148 137.833 11.2148C138.203 11.2148 138.53 11.2788 138.813 11.4068C139.096 11.528 139.331 11.6963 139.52 11.9118C139.708 12.1206 139.85 12.3664 139.944 12.6492C140.045 12.932 140.096 13.235 140.096 13.5583Z" fill="#037A72"/>
<path d="M128.422 11.3361C128.436 11.464 128.446 11.6054 128.452 11.7603C128.459 11.9152 128.463 12.0431 128.463 12.1441H128.483C128.617 11.868 128.836 11.6458 129.139 11.4775C129.442 11.3024 129.762 11.2148 130.099 11.2148C130.698 11.2148 131.146 11.3933 131.442 11.7502C131.745 12.1071 131.897 12.5785 131.897 13.1643V16.0633H131.21V13.4472C131.21 13.198 131.19 12.9724 131.149 12.7704C131.109 12.5684 131.038 12.3967 130.937 12.2552C130.843 12.1071 130.712 11.9926 130.543 11.9118C130.382 11.831 130.176 11.7906 129.927 11.7906C129.745 11.7906 129.567 11.8276 129.392 11.9017C129.224 11.9758 129.072 12.0903 128.937 12.2451C128.803 12.3933 128.695 12.5852 128.614 12.8209C128.533 13.0499 128.493 13.3226 128.493 13.6391V16.0633H127.806V12.3765C127.806 12.2485 127.803 12.0835 127.796 11.8815C127.789 11.6795 127.779 11.4977 127.766 11.3361H128.422Z" fill="#037A72"/>
<path d="M120.43 11.3361C120.443 11.464 120.454 11.6054 120.46 11.7603C120.467 11.9152 120.47 12.0431 120.47 12.1441H120.491C120.625 11.868 120.844 11.6458 121.147 11.4775C121.45 11.3024 121.77 11.2148 122.107 11.2148C122.706 11.2148 123.154 11.3933 123.45 11.7502C123.753 12.1071 123.905 12.5785 123.905 13.1643V16.0633H123.218V13.4472C123.218 13.198 123.198 12.9724 123.157 12.7704C123.117 12.5684 123.046 12.3967 122.945 12.2552C122.851 12.1071 122.72 11.9926 122.551 11.9118C122.39 11.831 122.184 11.7906 121.935 11.7906C121.753 11.7906 121.575 11.8276 121.4 11.9017C121.231 11.9758 121.08 12.0903 120.945 12.2451C120.81 12.3933 120.703 12.5852 120.622 12.8209C120.541 13.0499 120.501 13.3226 120.501 13.6391V16.0633H119.814V12.3765C119.814 12.2485 119.81 12.0835 119.804 11.8815C119.797 11.6795 119.787 11.4977 119.773 11.3361H120.43Z" fill="#037A72"/>
<path d="M116.212 13.6997C116.212 14.0566 116.148 14.3866 116.02 14.6896C115.899 14.9926 115.727 15.2552 115.505 15.4775C115.283 15.6997 115.017 15.8748 114.707 16.0027C114.397 16.1239 114.057 16.1845 113.687 16.1845C113.323 16.1845 112.987 16.1239 112.677 16.0027C112.367 15.8748 112.101 15.6997 111.879 15.4775C111.657 15.2552 111.482 14.9926 111.354 14.6896C111.232 14.3866 111.172 14.0566 111.172 13.6997C111.172 13.3428 111.232 13.0128 111.354 12.7098C111.482 12.4068 111.657 12.1441 111.879 11.9219C112.101 11.6997 112.367 11.528 112.677 11.4068C112.987 11.2788 113.323 11.2148 113.687 11.2148C114.057 11.2148 114.397 11.2788 114.707 11.4068C115.017 11.528 115.283 11.6997 115.505 11.9219C115.727 12.1441 115.899 12.4068 116.02 12.7098C116.148 13.0128 116.212 13.3428 116.212 13.6997ZM115.485 13.6997C115.485 13.4371 115.441 13.1913 115.354 12.9623C115.273 12.7266 115.155 12.5246 115 12.3563C114.845 12.1812 114.657 12.0431 114.434 11.9421C114.212 11.8411 113.963 11.7906 113.687 11.7906C113.411 11.7906 113.162 11.8411 112.94 11.9421C112.724 12.0431 112.539 12.1812 112.384 12.3563C112.229 12.5246 112.108 12.7266 112.02 12.9623C111.94 13.1913 111.899 13.4371 111.899 13.6997C111.899 13.9623 111.94 14.2115 112.02 14.4472C112.108 14.6761 112.229 14.8781 112.384 15.0532C112.539 15.2216 112.724 15.3563 112.94 15.4573C113.162 15.5515 113.411 15.5987 113.687 15.5987C113.963 15.5987 114.212 15.5515 114.434 15.4573C114.657 15.3563 114.845 15.2216 115 15.0532C115.155 14.8781 115.273 14.6761 115.354 14.4472C115.441 14.2115 115.485 13.9623 115.485 13.6997Z" fill="#037A72"/>
<path d="M107.747 12.4169C107.633 12.235 107.465 12.0869 107.242 11.9724C107.027 11.8512 106.791 11.7906 106.535 11.7906C106.259 11.7906 106.01 11.8411 105.788 11.9421C105.566 12.0364 105.374 12.1711 105.212 12.3462C105.057 12.5145 104.936 12.7165 104.848 12.9522C104.768 13.1812 104.727 13.4303 104.727 13.6997C104.727 13.9691 104.768 14.2182 104.848 14.4472C104.936 14.6761 105.057 14.8781 105.212 15.0532C105.367 15.2216 105.556 15.3563 105.778 15.4573C106 15.5515 106.249 15.5987 106.525 15.5987C106.828 15.5987 107.084 15.5414 107.293 15.427C107.502 15.3125 107.673 15.1643 107.808 14.9825L108.323 15.3664C108.121 15.6155 107.872 15.8142 107.576 15.9623C107.286 16.1105 106.936 16.1845 106.525 16.1845C106.141 16.1845 105.795 16.1239 105.485 16.0027C105.175 15.8748 104.909 15.6997 104.687 15.4775C104.471 15.2552 104.303 14.9926 104.182 14.6896C104.061 14.3866 104 14.0566 104 13.6997C104 13.3428 104.061 13.0128 104.182 12.7098C104.303 12.4068 104.471 12.1441 104.687 11.9219C104.909 11.6997 105.175 11.528 105.485 11.4068C105.795 11.2788 106.141 11.2148 106.525 11.2148C106.842 11.2148 107.162 11.2856 107.485 11.427C107.815 11.5616 108.081 11.7637 108.283 12.033L107.747 12.4169Z" fill="#037A72"/>
<path d="M94 6V20" stroke="#A6B9BB" stroke-width="0.75"/>
</svg>
